<svg xmlns="http://www.w3.org/2000/svg" viewBox="0 0 84 84" fill="none">
  <g clip-path="url(#a)">
    <path fill="#FF2D20" d="M83.719 21.178c0-1.12-.952-1.993-2.072-1.993-.952 0-1.904.873-2.072 1.825L63.727 58.028c3.192-1.008 5.937-2.52 8.121-4.368L83.551 21.43c.112-.084.168-.168.168-.252Zm-40.17 36.514c2.184.504 4.536.756 7.057.756 9.241 0 17.866-3.192 24.25-8.793L59.527 87.598c-.168.672-.784 1.176-1.512 1.176s-1.344-.504-1.512-1.176L43.549 57.692Zm7.057-33.825c-2.52 0-4.872.252-7.057.756l13.162-30.128c.168-.672.784-1.176 1.512-1.176s1.344.504 1.512 1.176l14.23 37.994c-6.384-5.601-15.009-8.622-23.359-8.622ZM.197 49.067c0 1.12.952 1.993 2.072 1.993.952 0 1.904-.873 2.072-1.825l15.85-37.07c-3.192 1.008-5.937 2.52-8.121 4.368L.365 48.815c-.112.084-.168.168-.168.252Zm40.17-36.682c-2.184-.504-4.536-.756-7.057-.756-9.241 0-17.866 3.192-24.25 8.793l15.345-37.742c.168-.672.784-1.176 1.512-1.176s1.344.504 1.512 1.176l12.938 29.705Zm-7.057 33.993c2.52 0 4.872-.252 7.057-.756L27.205 75.75c-.168.672-.784 1.176-1.512 1.176s-1.344-.504-1.512-1.176L9.951 37.756c6.384 5.601 15.009 8.622 23.359 8.622Z"/>
  </g>
  <defs>
    <clipPath id="a">
      <path fill="#fff" d="M0 0h84v84H0z"/>
    </clipPath>
  </defs>
</svg>
