<svg xmlns="http://www.w3.org/2000/svg" viewBox="0 0 84 84" fill="none">
  <path fill="#FB70A9" d="M58.964 41.873c-.436-.97-1.308-1.94-2.616-1.94h-14.94l5.232-25.696c.436-1.94-.436-3.395-1.744-3.88-.436-.242-.872-.242-1.308-.242-.872 0-1.744.485-2.18 1.213L18.952 43.813c-.436.728-.872 1.698-.872 2.91 0 2.183 1.744 3.88 3.924 3.88h14.94l-5.232 25.697c-.436 1.94.436 3.395 1.744 3.88.436.242.872.242 1.308.242.872 0 1.744-.485 2.18-1.213l22.456-32.485c.436-.728.872-1.698.872-2.91 0-.728-.108-1.456-.308-1.94ZM39.536 67.813l3.488-17.334c.436-1.94-.436-3.395-1.744-3.88-.436-.243-.872-.243-1.308-.243H26.248l15.18-21.817-3.488 17.334c-.436 1.94.436 3.395 1.744 3.88.436.242.872.242 1.308.242h13.724L39.536 67.813Z"/>
</svg>
