<svg xmlns="http://www.w3.org/2000/svg" viewBox="0 0 84 84" fill="none">
  <path fill="#38BDF8" d="M42 16.8c-11.2 0-18.2 5.6-21 16.8 4.2-5.6 9.1-7.7 14.7-6.3 3.2.8 5.5 3.1 8 5.7 4.1 4.2 8.9 9.1 19.3 9.1 11.2 0 18.2-5.6 21-16.8-4.2 5.6-9.1 7.7-14.7 6.3-3.2-.8-5.5-3.1-8-5.7-4.1-4.2-8.9-9.1-19.3-9.1zM21 42c-11.2 0-18.2 5.6-21 16.8 4.2-5.6 9.1-7.7 14.7-6.3 3.2.8 5.5 3.1 8 5.7 4.1 4.2 8.9 9.1 19.3 9.1 11.2 0 18.2-5.6 21-16.8-4.2 5.6-9.1 7.7-14.7 6.3-3.2-.8-5.5-3.1-8-5.7C36.2 46.9 31.4 42 21 42z"/>
</svg>
